<svg xmlns="http://www.w3.org/2000/svg" xmlns:xlink="http://www.w3.org/1999/xlink" width="30" height="30" viewBox="0 0 30 30">
  <defs>
    <linearGradient id="linear-gradient" x1="0.879" y1="0.968" x2="0.093" y2="0.074" gradientUnits="objectBoundingBox">
      <stop offset="0" stop-color="#24cee5"/>
      <stop offset="1" stop-color="#0041ff"/>
    </linearGradient>
  </defs>
  <path id="Path_11" data-name="Path 11" d="M14.864,6A8.872,8.872,0,0,0,6,14.864V27.136A8.872,8.872,0,0,0,14.864,36H27.136A8.872,8.872,0,0,0,36,27.136V14.864A8.872,8.872,0,0,0,27.136,6Zm14.318,5.455a1.364,1.364,0,1,1-1.364,1.364A1.368,1.368,0,0,1,29.182,11.455ZM21,13.5A7.5,7.5,0,1,1,13.5,21,7.5,7.5,0,0,1,21,13.5Zm0,1.364A6.136,6.136,0,1,0,27.136,21,6.145,6.145,0,0,0,21,14.864Zm0,0" transform="translate(-6 -6)" fill="url(#linear-gradient)"/>
</svg>
